<?xml version="1.0" encoding="UTF-8"?>
<svg id="Layer_1" xmlns="http://www.w3.org/2000/svg" version="1.1" xmlns:xodm="http://www.corel.com/coreldraw/odm/2003" viewBox="0 0 36.3 33.4">
  <!-- Generator: Adobe Illustrator 29.8.3, SVG Export Plug-In . SVG Version: 2.1.1 Build 3)  -->
  <defs>
    <style>
      .st0 {
        fill: #c13308;
        fill-rule: evenodd;
      }
    </style>
  </defs>
  <path class="st0" d="M18.9.9s-1.9,1.6.9,4.1c3.3,2.9,6.8,5.9,1.3,9.6,3-4.8-3.6-6.2-3.9-10.4,0-.6.3-2.8,1.7-3.4h0ZM11.1,26.5c-21.1,2.3,4.6,8.5,22,4.9-27.7.8-22-4.9-22-4.9h0ZM17.4,7.4c-2.3.8-2.8,4.4-2.8,5.4.6,6.6,11,8.8,6.3,16.6,8.8-5.9,3.3-10.7-2-15.3-4.6-4-1.5-6.6-1.5-6.6h0ZM14.4,15.6c-1.5.5-1.8,2.7-1.7,3.4.3,4.1,6.9,5.5,3.9,10.4,5.5-3.7,2-6.7-1.3-9.6-2.9-2.5-.9-4.1-.9-4.1h0Z"/>
</svg>