<?xml version="1.0" encoding="UTF-8"?>
<svg id="Layer_1" xmlns="http://www.w3.org/2000/svg" version="1.1" xmlns:xodm="http://www.corel.com/coreldraw/odm/2003" viewBox="0 0 151.4 30.5">
  <!-- Generator: Adobe Illustrator 29.8.3, SVG Export Plug-In . SVG Version: 2.1.1 Build 3)  -->
  <defs>
    <style>
      .st0 {
        fill: #c13308;
        fill-rule: evenodd;
      }

      .st1 {
        fill: #fff;
      }
    </style>
  </defs>
  <path class="st0" d="M15.3,1.4s-1.7,1.4.8,3.6c2.9,2.5,5.9,5.2,1.1,8.4,2.6-4.3-3.2-5.5-3.5-9.1,0-.6.2-2.5,1.5-3h0ZM8.4,23.9c-18.6,2.1,4,7.5,19.4,4.3-24.4.7-19.4-4.3-19.4-4.3h0ZM13.9,7.1c-2.1.7-2.5,3.8-2.4,4.7.5,5.8,9.7,7.8,5.5,14.6,7.7-5.2,2.9-9.4-1.8-13.5-4.1-3.5-1.3-5.8-1.3-5.8h0ZM11.3,14.3c-1.3.5-1.6,2.4-1.5,3,.3,3.6,6.1,4.9,3.5,9.1,4.8-3.2,1.8-5.9-1.1-8.4-2.5-2.2-.8-3.6-.8-3.6h0Z"/>
  <g>
    <path class="st1" d="M36,13.5h0c0-.2,0-.4,0-.5,0-.1-.1-.2-.2-.2h-4.2c-.4,0-.8-.1-1.1-.3-.3-.2-.6-.5-.9-.8s-.4-.7-.6-1c-.1-.4-.2-.7-.2-1.1s0-.7.3-1.1c.2-.4.4-.8.7-1.2.3-.4.7-.7,1-1,.4-.3.8-.4,1.2-.4h10.6c-.3.5-.7.9-1.1,1.4-.4.5-.9.9-1.4,1.4h-6.9c-.2,0-.3.1-.4.3-.1.2-.2.4-.2.5h0c0,.1,0,.1,0,.2,0,0,0,0,.1.1,0,0,.1.1.2.2.1,0,.2,0,.2,0h4c.4,0,.8.1,1.1.3.3.2.6.5.8.8.2.3.4.7.4,1.1,0,.4.1.7.1,1h0c0,.5,0,.9-.2,1.3-.2.4-.4.8-.7,1.1-.3.3-.6.6-.9.9-.4.2-.7.3-1.1.3h-10.6c0-.1.2-.4.4-.7.2-.3.4-.6.7-.9.2-.3.5-.6.7-.8.2-.2.3-.4.4-.4h7.1c.2,0,.3,0,.4-.2,0-.1,0-.3,0-.4h0Z"/>
    <path class="st1" d="M46.2,8.8h-3.9c0,0,.1-.2.3-.5.2-.2.4-.5.7-.8.3-.3.5-.6.8-.9.3-.3.5-.5.7-.6h10.4c0,.2-.3.4-.5.8-.2.3-.5.6-.7.9-.3.3-.5.6-.7.8-.2.2-.4.3-.5.3h-2.5l-3,8.2h-4l3-8.2Z"/>
    <path class="st1" d="M56.2,6h9.3c.5,0,.9.1,1.2.3.3.2.5.5.7.8.2.3.3.7.3,1,0,.4,0,.7,0,1,0,.7-.2,1.3-.5,1.7-.3.5-.8.8-1.3,1.1-.5.3-1.1.5-1.7.6-.6.1-1.2.2-1.8.2l4.1,4.2h-4.5l-4.3-4-.2.2-1.4,3.8h-4l4-11ZM63.7,9.2c0-.1,0-.2,0-.3,0,0-.1-.1-.3-.1h-4.2l-1.2,3.2,1.8-1.9h3.3c.2,0,.4,0,.4-.3,0-.2.1-.4.1-.5v-.2Z"/>
    <path class="st1" d="M82.6,6c0,.2-.3.4-.5.8-.2.3-.5.6-.7.9-.3.3-.5.6-.7.8-.2.2-.4.3-.5.3h-6.4l-1.2,3.3,2-1.9h4.8l-3,2.8h-4.1l-.5,1.2h8s0,0-.1.2c0,0-.1.2-.2.3,0,0-.1.2-.2.3,0,0,0,.1-.1.1-.1.2-.3.4-.5.6-.2.2-.4.4-.6.6s-.4.4-.6.5c-.2.1-.2.2-.3.2h-10.5l4-11h11.9Z"/>
    <path class="st1" d="M90.6,17l-.4-2.4c0,0-.1.2-.3.5-.2.2-.4.5-.6.7-.2.3-.4.5-.6.7s-.4.4-.5.4h-8.8c0-.1,0-.2,0-.1h0c0,0,7.5-9.6,7.5-9.6,0,0,.1-.2.2-.3.1-.1.3-.3.4-.4s.3-.2.4-.4c.1-.1.3-.2.4-.2h3.5c.1,0,.3,0,.4.2.1.2.2.3.3.6,0,.2.2.5.2.7,0,.2.1.4.2.6l1.4,8.9h-3.7ZM85.9,14.2h4.2l-.7-4.9-3.5,4.7v.2Z"/>
    <path class="st1" d="M107.5,17l2.2-6.2-5.7,6.2h-1.4l-1.1-6.2-2.2,6.2h-4l4-11h5l1.1,5.5,5.1-5.5h5l-4,11h-4Z"/>
    <path class="st1" d="M113.9,13l3-2.8h4.8l-3,2.8h-4.8Z"/>
    <path class="st1" d="M126.3,11.8l-2.4-5.8h4.5l1,2.6,3-2.6h4.5l-6.6,5.8-1.9,5.2h-4l1.9-5.2Z"/>
    <path class="st1" d="M140.6,8.8h-3.9c0,0,.1-.2.3-.5.2-.2.4-.5.7-.8s.5-.6.8-.9c.3-.3.5-.5.7-.6h10.4c0,.2-.3.4-.5.8-.2.3-.5.6-.7.9-.3.3-.5.6-.8.8-.2.2-.4.3-.5.3h-2.5l-3,8.2h-4l3-8.2Z"/>
  </g>
  <g>
    <path class="st1" d="M31,19.4c.2,0,.3,0,.4.1.1,0,.2.2.2.3,0,.1.1.2.1.4,0,.1,0,.3,0,.4h0c0,.1,0,.2,0,.3,0,.1-.1.2-.2.3s-.1.2-.2.2c0,0-.1.1-.2.1,0,0,.1.1.2.2,0,0,0,.2,0,.3,0,0,0,.2,0,.2,0,0,0,.1,0,.2h0c0,.3-.2.4-.3.6,0,.1-.2.2-.3.3s-.3.1-.5.2-.4,0-.7,0h-3.7l1.5-4.3h3.7ZM29.4,22.6c0,0,0,0,.1,0,0,0,0,0,0,0,0,0,0,0,0,0,0,0,0-.1,0-.1h0c0,0,0,0,0-.1,0,0,0,0,0-.1h-1.8l-.2.5h1.6ZM28.8,21.1h1.3s0,0,0,0c0,0,0,0,0,0s0,0,0,0c0,0,0,0,0,0h0s0,0,0,0c0,0,0,0,0-.1,0,0,0,0,0,0h-1.6l-.4,1.2.8-.7Z"/>
    <path class="st1" d="M33.7,21.7l-.9-2.2h1.7l.4,1,1.1-1h1.7l-2.5,2.2-.7,2h-1.5l.7-2Z"/>
    <path class="st1" d="M40.4,19.4h1.5l-1.5,4.3h-1.5l1.5-4.3Z"/>
    <path class="st1" d="M42.4,19.4h1.9l.5,2.4.9-2.4h1.5l-1.5,4.3h-1.9l-.4-2.4-.9,2.4h-1.5l1.5-4.3Z"/>
    <path class="st1" d="M51.6,21.8c-.2.3-.5.6-.7.9-.2.2-.5.4-.8.6-.3.2-.6.3-.9.3s-.7.1-1.1.1h-2l1.5-4.3h3.5c.3,0,.6,0,.7.3s.2.4.2.7,0,.4-.1.7c0,.2-.2.5-.4.7ZM48.8,20.5l-.8,2.1h.2c.1,0,.3,0,.5,0,.2,0,.3-.1.5-.2.2,0,.3-.2.5-.3.1-.1.3-.2.3-.3,0,0,0,0,.1-.1,0,0,0-.1.1-.2,0,0,0-.2,0-.2,0,0,0-.2,0-.2s0-.2,0-.2-.1,0-.2,0h-1.3Z"/>
    <path class="st1" d="M52.9,19.4h3.6c.2,0,.3,0,.5.1s.2.2.3.3.1.3.1.4c0,.1,0,.3,0,.4,0,.3,0,.5-.2.7s-.3.3-.5.4-.4.2-.7.2-.5,0-.7,0l1.6,1.6h-1.7l-1.7-1.5h0c0,0-.5,1.5-.5,1.5h-1.5l1.5-4.3ZM55.8,20.7s0,0,0-.1c0,0,0,0-.1,0h-1.6l-.5,1.3.7-.7h1.3c0,0,.1,0,.2-.1,0,0,0-.1,0-.2h0Z"/>
    <path class="st1" d="M61.3,23.7l-.2-.9s0,0-.1.2-.1.2-.2.3-.2.2-.2.3c0,0-.1.1-.2.2h-3.4s0,0,0,0h0s2.9-3.7,2.9-3.7c0,0,0,0,0-.1,0,0,.1-.1.2-.2s.1,0,.2-.1.1,0,.1,0h1.3c0,0,.1,0,.1,0s0,.1.1.2c0,0,0,.2,0,.3,0,0,0,.2,0,.2l.5,3.4h-1.4ZM59.5,22.6h1.6l-.3-1.9-1.3,1.8h0Z"/>
    <path class="st1" d="M69.1,22.3h0c0,0,0-.1,0-.2,0,0,0,0,0,0h-1.6c-.2,0-.3,0-.4-.1-.1,0-.2-.2-.3-.3,0-.1-.2-.3-.2-.4s0-.3,0-.4,0-.3.1-.4c0-.2.2-.3.3-.5s.3-.3.4-.4c.1,0,.3-.1.4-.1h4.1c-.1.2-.3.4-.4.5-.2.2-.3.4-.5.5h-2.6c0,0-.1,0-.2.1s0,.1,0,.2h0s0,0,0,0c0,0,0,0,0,0,0,0,0,0,0,0,0,0,0,0,0,0h1.5c.2,0,.3,0,.4.1.1,0,.2.2.3.3s.1.3.2.4,0,.3,0,.4h0c0,.2,0,.3,0,.5,0,.2-.1.3-.3.4-.1.1-.2.2-.4.3-.1,0-.3.1-.4.1h-4.1c0,0,0-.1.2-.3s.2-.2.3-.4.2-.2.3-.3c0,0,.1-.1.1-.1h2.7c0,0,.1,0,.1,0,0,0,0,0,0-.2h0Z"/>
    <path class="st1" d="M74.9,23.7l-.2-.9s0,0-.1.2-.1.2-.2.3-.2.2-.2.3c0,0-.1.1-.2.2h-3.4s0,0,0,0h0s2.9-3.7,2.9-3.7c0,0,0,0,0-.1,0,0,.1-.1.2-.2s.1,0,.2-.1.1,0,.1,0h1.3c0,0,.1,0,.1,0s0,.1.1.2c0,0,0,.2,0,.3,0,0,0,.2,0,.2l.5,3.4h-1.4ZM73.1,22.6h1.6l-.3-1.9-1.3,1.8h0Z"/>
    <path class="st1" d="M78.1,20.5h-1.5s0,0,.1-.2c0,0,.2-.2.3-.3,0-.1.2-.2.3-.3.1-.1.2-.2.3-.2h4c0,0-.1.2-.2.3,0,.1-.2.2-.3.4,0,.1-.2.2-.3.3s-.2.1-.2.1h-.9l-1.2,3.2h-1.5l1.2-3.2Z"/>
    <path class="st1" d="M82,19.4h3.6c.2,0,.3,0,.5.1.1,0,.2.2.3.3s.1.3.1.4c0,.1,0,.3,0,.4,0,.3,0,.5-.2.7s-.3.3-.5.4c-.2.1-.4.2-.7.2-.2,0-.5,0-.7,0l1.6,1.6h-1.7l-1.7-1.5h0c0,0-.5,1.5-.5,1.5h-1.5l1.5-4.3ZM84.9,20.7s0,0,0-.1c0,0,0,0-.1,0h-1.6l-.5,1.3.7-.7h1.3c0,0,.1,0,.2-.1,0,0,0-.1,0-.2h0Z"/>
    <path class="st1" d="M87.6,19.4h1.5l-1.5,4.3h-1.5l1.5-4.3Z"/>
    <path class="st1" d="M92.3,23.7l-.2-.9s0,0-.1.2-.1.2-.2.3-.2.2-.2.3-.1.1-.2.2h-3.4s0,0,0,0h0s2.9-3.7,2.9-3.7c0,0,0,0,0-.1,0,0,.1-.1.2-.2,0,0,.1,0,.2-.1,0,0,.1,0,.1,0h1.3c0,0,.1,0,.1,0,0,0,0,.1.1.2s0,.2,0,.3c0,0,0,.2,0,.2l.5,3.4h-1.4ZM90.5,22.6h1.6l-.3-1.9-1.3,1.8h0Z"/>
  </g>
</svg>